<svg width="17" height="16" viewBox="0 0 17 16" fill="none" xmlns="http://www.w3.org/2000/svg">
<path d="M4.54008 12H3.20675C2.85312 12 2.51399 11.8595 2.26394 11.6095C2.01389 11.3594 1.87341 11.0203 1.87341 10.6667V7.33333C1.87341 6.97971 2.01389 6.64057 2.26394 6.39052C2.51399 6.14048 2.85312 6 3.20675 6H13.8734C14.227 6 14.5662 6.14048 14.8162 6.39052C15.0663 6.64057 15.2067 6.97971 15.2067 7.33333V10.6667C15.2067 11.0203 15.0663 11.3594 14.8162 11.6095C14.5662 11.8595 14.227 12 13.8734 12H12.5401" stroke="#F8FAFC" stroke-width="1.33333" stroke-linecap="round" stroke-linejoin="round"/>
<path d="M4.54004 6V2C4.54004 1.82319 4.61028 1.65362 4.7353 1.5286C4.86033 1.40357 5.02989 1.33334 5.20671 1.33334H11.8734C12.0502 1.33334 12.2198 1.40357 12.3448 1.5286C12.4698 1.65362 12.54 1.82319 12.54 2V6" stroke="#F8FAFC" stroke-width="1.33333" stroke-linecap="round" stroke-linejoin="round"/>
<path d="M11.8734 9.33333H5.20671C4.83852 9.33333 4.54004 9.63181 4.54004 9.99999V14C4.54004 14.3682 4.83852 14.6667 5.20671 14.6667H11.8734C12.2416 14.6667 12.54 14.3682 12.54 14V9.99999C12.54 9.63181 12.2416 9.33333 11.8734 9.33333Z" stroke="#F8FAFC" stroke-width="1.33333" stroke-linecap="round" stroke-linejoin="round"/>
</svg>
